# Apple ModelIO OBJ File: Galaga Fighter
mtllib Galaga Fighter.mtl
g 
v -10 11 1
v -10 10 0
v -10 10 1
v -10 11 0
v -9 12 1
v -9 11 0
v -9 11 1
v -9 12 0
v -7 10 1
v -7 9 0
v -7 9 1
v -7 10 0
v -7 11 2
v -7 10 2
v -7 11 1
v -7 11 0
v -7 10 -1
v -7 11 -1
v -6 10 4
v -6 9 3
v -6 9 4
v -6 10 3
v -6 10 -2
v -6 9 -3
v -6 9 -2
v -6 10 -3
v -5 10 2
v -5 9 1
v -5 9 2
v -5 10 1
v -5 10 0
v -5 9 -1
v -5 9 0
v -5 10 -1
v -5 12 2
v -5 11 1
v -5 11 2
v -5 12 1
v -5 12 0
v -5 11 -1
v -5 11 0
v -5 12 -1
v -3 10 3
v -3 9 2
v -3 9 3
v -3 10 -2
v -3 9 -2
v -3 9 -1
v -3 11 3
v -3 11 2
v -3 11 -1
v -3 11 -2
v -2 11 8
v -2 10 7
v -2 10 8
v -2 11 7
v -2 11 -6
v -2 10 -7
v -2 10 -6
v -2 11 -7
v -1 10 5
v -1 9 4
v -1 9 5
v -1 10 4
v -1 10 -3
v -1 9 -4
v -1 9 -3
v -1 10 -4
v -1 11 4
v -1 10 3
v -1 11 3
v -1 11 -2
v -1 10 -2
v -1 11 -3
v -1 12 3
v -1 11 2
v -1 12 2
v -1 12 -1
v -1 11 -1
v -1 12 -2
v -1 13 2
v -1 12 0
v -1 12 1
v -1 13 -1
v 0 11 5
v 0 10 4
v 0 10 5
v 0 11 4
v 0 11 -3
v 0 10 -4
v 0 10 -3
v 0 11 -4
v 1 11 6
v 1 10 5
v 1 10 6
v 1 11 5
v 1 11 -4
v 1 10 -5
v 1 10 -4
v 1 11 -5
v 1 12 1
v 1 11 0
v 1 11 1
v 1 12 0
v 2 11 7
v 2 10 6
v 2 10 7
v 2 11 6
v 2 11 -5
v 2 10 -6
v 2 10 -5
v 2 11 -6
v 3 12 4
v 3 11 3
v 3 11 4
v 3 12 3
v 3 12 -2
v 3 11 -3
v 3 11 -2
v 3 12 -3
v 3 13 3
v 3 12 2
v 3 13 2
v 3 13 -1
v 3 12 -1
v 3 13 -2
v 4 14 1
v 4 13 0
v 4 13 1
v 4 14 0
v 5 15 1
v 5 14 0
v 5 14 1
v 5 15 0
v 0 11 1
v 0 11 0
v 0 12 1
v 0 12 0
v 1 9 5
v 1 9 3
v 1 10 3
v 1 9 -2
v 1 9 -4
v 1 10 -2
v 2 9 3
v 2 9 2
v 2 10 3
v 2 10 2
v 2 9 -1
v 2 9 -2
v 2 10 -1
v 2 10 -2
v 3 9 2
v 3 9 -1
v 3 10 2
v 3 10 -1
v 3 10 5
v 3 10 4
v 3 11 5
v 3 10 -3
v 3 10 -4
v 3 11 -4
v 4 10 6
v 4 10 5
v 4 11 6
v 4 11 5
v 4 10 -4
v 4 10 -5
v 4 11 -4
v 4 11 -5
v 4 10 2
v 4 10 1
v 4 12 2
v 4 10 0
v 4 10 -1
v 4 12 -1
v 4 12 3
v 4 13 3
v 4 13 2
v 4 12 -2
v 4 13 -1
v 4 13 -2
v 5 10 7
v 5 10 6
v 5 11 7
v 5 11 6
v 5 10 -5
v 5 10 -6
v 5 11 -5
v 5 11 -6
v 5 10 4
v 5 10 2
v 5 12 4
v 5 12 2
v 5 10 -1
v 5 10 -3
v 5 12 -1
v 5 12 -3
v 6 10 8
v 6 10 7
v 6 11 8
v 6 11 7
v 6 10 1
v 6 10 0
v 6 11 1
v 6 11 0
v 6 10 -6
v 6 10 -7
v 6 11 -6
v 6 11 -7
v 7 11 1
v 7 11 0
v 7 15 1
v 7 15 0
v 0 10 8
v 0 11 8
v 0 9 5
v -4 9 4
v -4 10 4
v -2 9 4
v -2 10 4
v -2 10 3
v 2 11 3
v 2 12 3
v 1 12 2
v 1 13 2
v 2 12 2
v -4 9 -2
v -4 10 -2
v 0 10 -6
v 0 11 -6
v 0 10 7
v 0 11 7
v -4 9 3
v -4 10 3
v 1 12 -1
v 1 13 -1
v 2 12 -1
v -2 10 -2
v 2 11 -2
v 2 12 -2
v -4 9 -3
v -4 10 -3
v -2 9 -3
v -2 10 -3
v 0 9 -4
v 0 10 -7
v 0 11 -7
v 0 9 4
v -2 9 3
v -1 9 3
v -2 9 -2
v -1 9 -2
v 0 9 -3
v 3 10 3
v 3 10 -2
v -2 12 1
v -2 12 0
v 0 13 1
v 1 13 1
v 0 13 0
v 1 13 0
vn -1 0 0
vn 1 0 0
vn 0 0 1
vn 0 0 -1
vn 0 -1 0
vn 0 1 0
vt 0.00195313 0.5
vt 0.00585938 0.5
vt 0.00976563 0.5
usemtl palette
f 1/1/1 2/1/1 3/1/1
f 4/1/1 2/1/1 1/1/1
f 5/1/1 6/1/1 7/1/1
f 8/1/1 6/1/1 5/1/1
f 9/1/1 10/1/1 11/1/1
f 12/1/1 10/1/1 9/1/1
f 13/1/1 9/1/1 14/1/1
f 15/1/1 9/1/1 13/1/1
f 16/1/1 17/1/1 12/1/1
f 18/1/1 17/1/1 16/1/1
f 19/2/1 20/2/1 21/2/1
f 22/2/1 20/2/1 19/2/1
f 23/2/1 24/2/1 25/2/1
f 26/2/1 24/2/1 23/2/1
f 27/1/1 28/1/1 29/1/1
f 30/1/1 28/1/1 27/1/1
f 31/1/1 32/1/1 33/1/1
f 34/1/1 32/1/1 31/1/1
f 35/1/1 36/1/1 37/1/1
f 38/1/1 36/1/1 35/1/1
f 39/1/1 40/1/1 41/1/1
f 42/1/1 40/1/1 39/1/1
f 43/1/1 44/1/1 45/1/1
f 46/1/1 47/1/1 48/1/1
f 49/1/1 44/1/1 43/1/1
f 50/1/1 44/1/1 49/1/1
f 51/1/1 46/1/1 48/1/1
f 52/1/1 46/1/1 51/1/1
f 53/2/1 54/2/1 55/2/1
f 56/2/1 54/2/1 53/2/1
f 57/2/1 58/2/1 59/2/1
f 60/2/1 58/2/1 57/2/1
f 61/3/1 62/3/1 63/3/1
f 64/3/1 62/3/1 61/3/1
f 65/3/1 66/3/1 67/3/1
f 68/3/1 66/3/1 65/3/1
f 69/1/1 70/1/1 64/1/1
f 71/1/1 70/1/1 69/1/1
f 72/1/1 65/1/1 73/1/1
f 74/1/1 65/1/1 72/1/1
f 75/1/1 76/1/1 71/1/1
f 77/1/1 76/1/1 75/1/1
f 78/1/1 72/1/1 79/1/1
f 80/1/1 72/1/1 78/1/1
f 81/2/1 82/2/1 83/2/1
f 81/2/1 78/2/1 82/2/1
f 81/2/1 83/2/1 77/2/1
f 84/2/1 78/2/1 81/2/1
f 85/1/1 86/1/1 87/1/1
f 88/1/1 86/1/1 85/1/1
f 89/1/1 90/1/1 91/1/1
f 92/1/1 90/1/1 89/1/1
f 93/1/1 94/1/1 95/1/1
f 96/1/1 94/1/1 93/1/1
f 97/1/1 98/1/1 99/1/1
f 100/1/1 98/1/1 97/1/1
f 101/1/1 102/1/1 103/1/1
f 104/1/1 102/1/1 101/1/1
f 105/1/1 106/1/1 107/1/1
f 108/1/1 106/1/1 105/1/1
f 109/1/1 110/1/1 111/1/1
f 112/1/1 110/1/1 109/1/1
f 113/2/1 114/2/1 115/2/1
f 116/2/1 114/2/1 113/2/1
f 117/2/1 118/2/1 119/2/1
f 120/2/1 118/2/1 117/2/1
f 121/2/1 122/2/1 116/2/1
f 123/2/1 122/2/1 121/2/1
f 124/2/1 117/2/1 125/2/1
f 126/2/1 117/2/1 124/2/1
f 127/1/1 128/1/1 129/1/1
f 130/1/1 128/1/1 127/1/1
f 131/1/1 132/1/1 133/1/1
f 134/1/1 132/1/1 131/1/1
f 135/2/2 136/2/2 137/2/2
f 137/2/2 136/2/2 138/2/2
f 139/1/2 140/1/2 94/1/2
f 94/1/2 140/1/2 141/1/2
f 142/1/2 143/1/2 144/1/2
f 144/1/2 143/1/2 99/1/2
f 145/1/2 146/1/2 147/1/2
f 147/1/2 146/1/2 148/1/2
f 149/1/2 150/1/2 151/1/2
f 151/1/2 150/1/2 152/1/2
f 153/1/2 154/1/2 155/1/2
f 155/1/2 154/1/2 156/1/2
f 157/1/2 158/1/2 159/1/2
f 159/1/2 158/1/2 115/1/2
f 160/1/2 161/1/2 118/1/2
f 118/1/2 161/1/2 162/1/2
f 163/1/2 164/1/2 165/1/2
f 165/1/2 164/1/2 166/1/2
f 167/1/2 168/1/2 169/1/2
f 169/1/2 168/1/2 170/1/2
f 171/1/2 172/1/2 173/1/2
f 174/1/2 175/1/2 176/1/2
f 177/2/2 173/2/2 178/2/2
f 173/1/2 172/1/2 179/1/2
f 178/2/2 173/2/2 179/2/2
f 179/1/2 172/1/2 129/1/2
f 174/1/2 176/1/2 128/1/2
f 176/2/2 180/2/2 181/2/2
f 128/1/2 176/1/2 181/1/2
f 181/2/2 180/2/2 182/2/2
f 183/1/2 184/1/2 185/1/2
f 185/1/2 184/1/2 186/1/2
f 187/1/2 188/1/2 189/1/2
f 189/1/2 188/1/2 190/1/2
f 191/2/2 192/2/2 193/2/2
f 193/2/2 192/2/2 194/2/2
f 195/2/2 196/2/2 197/2/2
f 197/2/2 196/2/2 198/2/2
f 199/1/2 200/1/2 201/1/2
f 201/1/2 200/1/2 202/1/2
f 203/1/2 204/1/2 205/1/2
f 205/1/2 204/1/2 206/1/2
f 207/1/2 208/1/2 209/1/2
f 209/1/2 208/1/2 210/1/2
f 211/1/2 212/1/2 213/1/2
f 213/1/2 212/1/2 214/1/2
f 215/2/3 53/2/3 55/2/3
f 216/2/3 53/2/3 215/2/3
f 199/1/3 216/1/3 215/1/3
f 201/1/3 216/1/3 199/1/3
f 106/1/3 93/1/3 95/1/3
f 108/1/3 93/1/3 106/1/3
f 217/3/3 61/3/3 63/3/3
f 87/3/3 61/3/3 217/3/3
f 139/1/3 87/1/3 217/1/3
f 139/1/3 85/1/3 87/1/3
f 94/1/3 85/1/3 139/1/3
f 96/1/3 85/1/3 94/1/3
f 218/2/3 19/2/3 21/2/3
f 219/2/3 19/2/3 218/2/3
f 220/1/3 219/1/3 218/1/3
f 221/1/3 219/1/3 220/1/3
f 62/3/3 221/3/3 220/3/3
f 64/3/3 221/3/3 62/3/3
f 86/1/3 69/1/3 64/1/3
f 88/1/3 69/1/3 86/1/3
f 191/2/3 115/2/3 158/2/3
f 191/2/3 113/2/3 115/2/3
f 193/2/3 113/2/3 191/2/3
f 222/1/3 49/1/3 43/1/3
f 70/1/3 49/1/3 222/1/3
f 71/1/3 49/1/3 70/1/3
f 145/1/3 141/1/3 140/1/3
f 147/1/3 141/1/3 145/1/3
f 223/1/3 75/1/3 71/1/3
f 224/1/3 75/1/3 223/1/3
f 114/2/3 224/2/3 223/2/3
f 116/2/3 224/2/3 114/2/3
f 177/2/3 121/2/3 116/2/3
f 178/2/3 121/2/3 177/2/3
f 27/1/3 13/1/3 14/1/3
f 37/1/3 13/1/3 27/1/3
f 44/1/3 27/1/3 29/1/3
f 44/1/3 35/1/3 37/1/3
f 44/1/3 37/1/3 27/1/3
f 50/1/3 35/1/3 44/1/3
f 76/1/3 35/1/3 50/1/3
f 77/1/3 35/1/3 76/1/3
f 225/2/3 81/2/3 77/2/3
f 226/2/3 81/2/3 225/2/3
f 227/1/3 226/1/3 225/1/3
f 153/1/3 148/1/3 146/1/3
f 155/1/3 148/1/3 153/1/3
f 122/1/3 226/1/3 227/1/3
f 123/1/3 226/1/3 122/1/3
f 7/1/3 1/1/3 3/1/3
f 9/1/3 7/1/3 3/1/3
f 9/1/3 5/1/3 7/1/3
f 15/1/3 5/1/3 9/1/3
f 28/1/3 9/1/3 11/1/3
f 30/1/3 9/1/3 28/1/3
f 36/1/3 5/1/3 15/1/3
f 38/1/3 5/1/3 36/1/3
f 133/1/3 129/1/3 172/1/3
f 133/1/3 127/1/3 129/1/3
f 203/1/3 133/1/3 172/1/3
f 203/1/3 131/1/3 133/1/3
f 205/1/3 131/1/3 203/1/3
f 211/1/3 131/1/3 205/1/3
f 213/1/3 131/1/3 211/1/3
f 102/2/3 138/2/3 136/2/3
f 104/2/3 138/2/3 102/2/3
f 195/2/3 176/2/3 175/2/3
f 197/2/3 176/2/3 195/2/3
f 228/2/3 23/2/3 25/2/3
f 229/2/3 23/2/3 228/2/3
f 47/1/3 229/1/3 228/1/3
f 46/1/3 229/1/3 47/1/3
f 167/1/3 162/1/3 161/1/3
f 169/1/3 162/1/3 167/1/3
f 187/1/3 170/1/3 168/1/3
f 189/1/3 170/1/3 187/1/3
f 230/2/3 57/2/3 59/2/3
f 231/2/3 57/2/3 230/2/3
f 110/1/3 231/1/3 230/1/3
f 112/1/3 231/1/3 110/1/3
f 207/1/3 190/1/3 188/1/3
f 209/1/3 190/1/3 207/1/3
f 54/2/4 56/2/4 232/2/4
f 232/2/4 56/2/4 233/2/4
f 232/1/4 233/1/4 107/1/4
f 107/1/4 233/1/4 105/1/4
f 183/1/4 185/1/4 200/1/4
f 200/1/4 185/1/4 202/1/4
f 163/1/4 165/1/4 184/1/4
f 184/1/4 165/1/4 186/1/4
f 157/1/4 159/1/4 164/1/4
f 164/1/4 159/1/4 166/1/4
f 20/2/4 22/2/4 234/2/4
f 234/2/4 22/2/4 235/2/4
f 234/1/4 235/1/4 45/1/4
f 45/1/4 235/1/4 43/1/4
f 171/2/4 173/2/4 192/2/4
f 192/2/4 173/2/4 194/2/4
f 135/2/4 137/2/4 103/2/4
f 103/2/4 137/2/4 101/2/4
f 2/1/4 4/1/4 6/1/4
f 2/1/4 6/1/4 12/1/4
f 6/1/4 8/1/4 12/1/4
f 12/1/4 8/1/4 16/1/4
f 10/1/4 12/1/4 33/1/4
f 33/1/4 12/1/4 31/1/4
f 16/1/4 8/1/4 41/1/4
f 41/1/4 8/1/4 39/1/4
f 174/1/4 128/1/4 132/1/4
f 128/1/4 130/1/4 132/1/4
f 174/1/4 132/1/4 204/1/4
f 132/1/4 134/1/4 204/1/4
f 204/1/4 134/1/4 206/1/4
f 206/1/4 134/1/4 212/1/4
f 212/1/4 134/1/4 214/1/4
f 17/1/4 18/1/4 34/1/4
f 34/1/4 18/1/4 40/1/4
f 32/1/4 34/1/4 48/1/4
f 40/1/4 42/1/4 48/1/4
f 34/1/4 40/1/4 48/1/4
f 48/1/4 42/1/4 51/1/4
f 51/1/4 42/1/4 79/1/4
f 79/1/4 42/1/4 78/1/4
f 78/2/4 84/2/4 236/2/4
f 236/2/4 84/2/4 237/2/4
f 236/1/4 237/1/4 238/1/4
f 149/1/4 151/1/4 154/1/4
f 154/1/4 151/1/4 156/1/4
f 238/1/4 237/1/4 125/1/4
f 125/1/4 237/1/4 124/1/4
f 46/1/4 52/1/4 239/1/4
f 239/1/4 52/1/4 73/1/4
f 73/1/4 52/1/4 72/1/4
f 142/1/4 144/1/4 150/1/4
f 150/1/4 144/1/4 152/1/4
f 72/1/4 80/1/4 240/1/4
f 240/1/4 80/1/4 241/1/4
f 240/2/4 241/2/4 119/2/4
f 119/2/4 241/2/4 117/2/4
f 117/2/4 126/2/4 180/2/4
f 180/2/4 126/2/4 182/2/4
f 24/2/4 26/2/4 242/2/4
f 242/2/4 26/2/4 243/2/4
f 242/1/4 243/1/4 244/1/4
f 244/1/4 243/1/4 245/1/4
f 244/3/4 245/3/4 67/3/4
f 67/3/4 245/3/4 65/3/4
f 65/1/4 74/1/4 91/1/4
f 91/1/4 74/1/4 89/1/4
f 160/2/4 118/2/4 196/2/4
f 118/2/4 120/2/4 196/2/4
f 196/2/4 120/2/4 198/2/4
f 66/3/4 68/3/4 246/3/4
f 246/3/4 68/3/4 90/3/4
f 246/1/4 90/1/4 143/1/4
f 90/1/4 92/1/4 143/1/4
f 143/1/4 92/1/4 99/1/4
f 99/1/4 92/1/4 97/1/4
f 98/1/4 100/1/4 111/1/4
f 111/1/4 100/1/4 109/1/4
f 58/2/4 60/2/4 247/2/4
f 247/2/4 60/2/4 248/2/4
f 247/1/4 248/1/4 208/1/4
f 208/1/4 248/1/4 210/1/4
f 62/3/5 217/3/5 63/3/5
f 249/1/5 139/1/5 217/1/5
f 249/3/5 217/3/5 62/3/5
f 20/2/5 218/2/5 21/2/5
f 234/1/5 220/1/5 218/1/5
f 234/2/5 218/2/5 20/2/5
f 45/1/5 220/1/5 234/1/5
f 250/3/5 62/3/5 220/3/5
f 250/1/5 220/1/5 45/1/5
f 251/1/5 249/1/5 62/1/5
f 251/3/5 62/3/5 250/3/5
f 140/1/5 139/1/5 249/1/5
f 140/1/5 249/1/5 251/1/5
f 44/1/5 145/1/5 140/1/5
f 44/1/5 140/1/5 251/1/5
f 44/1/5 250/1/5 45/1/5
f 44/1/5 251/1/5 250/1/5
f 146/1/5 145/1/5 44/1/5
f 28/1/5 44/1/5 29/1/5
f 28/1/5 153/1/5 146/1/5
f 28/1/5 146/1/5 44/1/5
f 10/1/5 28/1/5 11/1/5
f 33/1/5 153/1/5 28/1/5
f 33/1/5 28/1/5 10/1/5
f 32/1/5 153/1/5 33/1/5
f 48/1/5 153/1/5 32/1/5
f 149/1/5 153/1/5 48/1/5
f 154/1/5 153/1/5 149/1/5
f 47/1/5 149/1/5 48/1/5
f 252/1/5 149/1/5 47/1/5
f 253/1/5 149/1/5 252/1/5
f 142/1/5 149/1/5 253/1/5
f 150/1/5 149/1/5 142/1/5
f 24/2/5 228/2/5 25/2/5
f 242/1/5 47/1/5 228/1/5
f 242/2/5 228/2/5 24/2/5
f 242/1/5 252/1/5 47/1/5
f 244/3/5 253/3/5 252/3/5
f 244/1/5 252/1/5 242/1/5
f 67/1/5 142/1/5 253/1/5
f 67/3/5 253/3/5 244/3/5
f 254/1/5 142/1/5 67/1/5
f 66/3/5 254/3/5 67/3/5
f 246/1/5 142/1/5 254/1/5
f 246/3/5 254/3/5 66/3/5
f 143/1/5 142/1/5 246/1/5
f 54/2/5 215/2/5 55/2/5
f 232/1/5 199/1/5 215/1/5
f 232/2/5 215/2/5 54/2/5
f 107/1/5 199/1/5 232/1/5
f 183/1/5 199/1/5 107/1/5
f 200/1/5 199/1/5 183/1/5
f 106/1/5 183/1/5 107/1/5
f 163/1/5 183/1/5 106/1/5
f 184/1/5 183/1/5 163/1/5
f 94/1/5 106/1/5 95/1/5
f 94/1/5 163/1/5 106/1/5
f 157/1/5 163/1/5 94/1/5
f 164/1/5 163/1/5 157/1/5
f 158/1/5 157/1/5 94/1/5
f 141/1/5 158/1/5 94/1/5
f 147/1/5 158/1/5 141/1/5
f 255/2/5 191/2/5 158/2/5
f 255/1/5 158/1/5 147/1/5
f 148/2/5 255/2/5 147/2/5
f 155/2/5 191/2/5 255/2/5
f 155/2/5 255/2/5 148/2/5
f 171/2/5 191/2/5 155/2/5
f 192/2/5 191/2/5 171/2/5
f 9/1/5 27/1/5 14/1/5
f 30/1/5 27/1/5 9/1/5
f 172/1/5 171/1/5 155/1/5
f 2/1/5 9/1/5 3/1/5
f 12/1/5 9/1/5 2/1/5
f 174/1/5 172/1/5 155/1/5
f 174/1/5 203/1/5 172/1/5
f 204/1/5 203/1/5 174/1/5
f 17/1/5 31/1/5 12/1/5
f 34/1/5 31/1/5 17/1/5
f 156/1/5 174/1/5 155/1/5
f 175/1/5 174/1/5 156/1/5
f 152/2/5 195/2/5 175/2/5
f 152/2/5 175/2/5 156/2/5
f 152/2/5 156/2/5 151/2/5
f 256/2/5 195/2/5 152/2/5
f 160/1/5 152/1/5 144/1/5
f 160/2/5 195/2/5 256/2/5
f 160/1/5 256/1/5 152/1/5
f 196/2/5 195/2/5 160/2/5
f 99/1/5 160/1/5 144/1/5
f 161/1/5 160/1/5 99/1/5
f 98/1/5 161/1/5 99/1/5
f 98/1/5 167/1/5 161/1/5
f 111/1/5 167/1/5 98/1/5
f 168/1/5 167/1/5 111/1/5
f 110/1/5 187/1/5 168/1/5
f 110/1/5 168/1/5 111/1/5
f 188/1/5 187/1/5 110/1/5
f 58/2/5 230/2/5 59/2/5
f 247/1/5 188/1/5 110/1/5
f 247/2/5 230/2/5 58/2/5
f 247/1/5 207/1/5 188/1/5
f 247/1/5 110/1/5 230/1/5
f 208/1/5 207/1/5 247/1/5
f 206/1/5 211/1/5 205/1/5
f 212/1/5 211/1/5 206/1/5
f 138/1/5 101/1/5 137/1/5
f 104/1/5 101/1/5 138/1/5
f 61/3/6 87/3/6 64/3/6
f 64/3/6 87/3/6 86/3/6
f 19/2/6 219/2/6 22/2/6
f 219/1/6 221/1/6 235/1/6
f 22/2/6 219/2/6 235/2/6
f 235/1/6 221/1/6 43/1/6
f 221/3/6 64/3/6 222/3/6
f 43/1/6 221/1/6 222/1/6
f 222/3/6 64/3/6 70/3/6
f 23/2/6 229/2/6 26/2/6
f 229/1/6 46/1/6 243/1/6
f 26/2/6 229/2/6 243/2/6
f 46/1/6 239/1/6 243/1/6
f 239/3/6 73/3/6 245/3/6
f 243/1/6 239/1/6 245/1/6
f 245/3/6 73/3/6 65/3/6
f 65/3/6 91/3/6 68/3/6
f 68/3/6 91/3/6 90/3/6
f 53/2/6 216/2/6 56/2/6
f 216/1/6 201/1/6 233/1/6
f 56/2/6 216/2/6 233/2/6
f 233/1/6 201/1/6 105/1/6
f 105/1/6 201/1/6 185/1/6
f 185/1/6 201/1/6 202/1/6
f 105/1/6 185/1/6 108/1/6
f 108/1/6 185/1/6 165/1/6
f 165/1/6 185/1/6 186/1/6
f 93/1/6 108/1/6 96/1/6
f 108/1/6 165/1/6 96/1/6
f 96/1/6 165/1/6 159/1/6
f 159/1/6 165/1/6 166/1/6
f 85/1/6 96/1/6 88/1/6
f 96/1/6 159/1/6 88/1/6
f 88/1/6 159/1/6 115/1/6
f 69/1/6 88/1/6 71/1/6
f 88/1/6 115/1/6 71/1/6
f 71/1/6 115/1/6 223/1/6
f 223/1/6 115/1/6 114/1/6
f 49/1/6 71/1/6 50/1/6
f 50/1/6 71/1/6 76/1/6
f 13/1/6 37/1/6 15/1/6
f 15/1/6 37/1/6 36/1/6
f 1/1/6 7/1/6 4/1/6
f 4/1/6 7/1/6 6/1/6
f 135/1/6 103/1/6 136/1/6
f 136/1/6 103/1/6 102/1/6
f 16/1/6 41/1/6 18/1/6
f 18/1/6 41/1/6 40/1/6
f 51/1/6 79/1/6 52/1/6
f 52/1/6 79/1/6 72/1/6
f 240/1/6 119/1/6 74/1/6
f 72/1/6 240/1/6 74/1/6
f 74/1/6 119/1/6 89/1/6
f 89/1/6 119/1/6 118/1/6
f 89/1/6 118/1/6 92/1/6
f 92/1/6 118/1/6 97/1/6
f 97/1/6 118/1/6 162/1/6
f 97/1/6 162/1/6 100/1/6
f 162/1/6 169/1/6 100/1/6
f 100/1/6 169/1/6 109/1/6
f 109/1/6 169/1/6 170/1/6
f 109/1/6 170/1/6 112/1/6
f 170/1/6 189/1/6 112/1/6
f 112/1/6 189/1/6 190/1/6
f 57/2/6 231/2/6 60/2/6
f 112/1/6 190/1/6 248/1/6
f 60/2/6 231/2/6 248/2/6
f 190/1/6 209/1/6 248/1/6
f 231/1/6 112/1/6 248/1/6
f 248/1/6 209/1/6 210/1/6
f 113/2/6 193/2/6 116/2/6
f 116/2/6 193/2/6 177/2/6
f 75/1/6 224/1/6 77/1/6
f 77/1/6 224/1/6 225/1/6
f 224/2/6 116/2/6 227/2/6
f 225/1/6 224/1/6 227/1/6
f 227/2/6 116/2/6 122/2/6
f 177/2/6 193/2/6 173/2/6
f 173/2/6 193/2/6 194/2/6
f 35/1/6 77/1/6 38/1/6
f 38/1/6 77/1/6 257/1/6
f 257/1/6 77/1/6 83/1/6
f 5/1/6 38/1/6 8/1/6
f 38/1/6 257/1/6 8/1/6
f 8/1/6 257/1/6 39/1/6
f 257/2/6 83/2/6 258/2/6
f 39/1/6 257/1/6 258/1/6
f 258/2/6 83/2/6 82/2/6
f 39/1/6 258/1/6 42/1/6
f 258/1/6 82/1/6 42/1/6
f 42/1/6 82/1/6 78/1/6
f 78/1/6 236/1/6 80/1/6
f 236/1/6 238/1/6 80/1/6
f 238/2/6 125/2/6 241/2/6
f 80/1/6 238/1/6 241/1/6
f 241/2/6 125/2/6 117/2/6
f 176/2/6 197/2/6 180/2/6
f 117/2/6 180/2/6 120/2/6
f 180/2/6 197/2/6 198/2/6
f 120/2/6 180/2/6 198/2/6
f 121/2/6 178/2/6 123/2/6
f 123/2/6 178/2/6 179/2/6
f 81/2/6 226/2/6 259/2/6
f 226/1/6 123/1/6 260/1/6
f 259/2/6 226/2/6 260/2/6
f 123/1/6 179/1/6 260/1/6
f 260/1/6 179/1/6 129/1/6
f 81/2/6 259/2/6 261/2/6
f 259/1/6 260/1/6 261/1/6
f 260/1/6 129/1/6 261/1/6
f 261/1/6 129/1/6 262/1/6
f 262/1/6 129/1/6 128/1/6
f 81/2/6 261/2/6 84/2/6
f 261/2/6 262/2/6 84/2/6
f 262/1/6 128/1/6 237/1/6
f 84/2/6 262/2/6 237/2/6
f 237/1/6 128/1/6 124/1/6
f 124/1/6 128/1/6 181/1/6
f 124/2/6 181/2/6 126/2/6
f 126/2/6 181/2/6 182/2/6
f 127/1/6 133/1/6 130/1/6
f 130/1/6 133/1/6 132/1/6
f 131/1/6 213/1/6 134/1/6
f 134/1/6 213/1/6 214/1/6
s off
